<mxfile host="app.diagrams.net" modified="2024-01-04T18:20:09.843Z" agent="Mozilla/5.0 (Windows NT 10.0; Win64; x64) AppleWebKit/537.36 (KHTML, like Gecko) Chrome/120.0.0.0 Safari/537.36" etag="AHRMncCaKvr3zTymDpr2" version="22.1.16" type="github">
  <diagram name="Page-1" id="2YBvvXClWsGukQMizWep">
    <mxGraphModel dx="1257" dy="669" grid="1" gridSize="10" guides="1" tooltips="1" connect="1" arrows="1" fold="1" page="1" pageScale="1" pageWidth="850" pageHeight="1100" math="0" shadow="0">
      <root>
        <mxCell id="0" />
        <mxCell id="1" parent="0" />
        <mxCell id="U5JM5fZHrac_0It8cKO1-1" value="UserController" style="shape=umlLifeline;perimeter=lifelinePerimeter;whiteSpace=wrap;html=1;container=0;dropTarget=0;collapsible=0;recursiveResize=0;outlineConnect=0;portConstraint=eastwest;newEdgeStyle={&quot;edgeStyle&quot;:&quot;elbowEdgeStyle&quot;,&quot;elbow&quot;:&quot;vertical&quot;,&quot;curved&quot;:0,&quot;rounded&quot;:0};" vertex="1" parent="1">
          <mxGeometry x="40" y="40" width="100" height="450" as="geometry" />
        </mxCell>
        <mxCell id="U5JM5fZHrac_0It8cKO1-3" value="GetById()" style="html=1;verticalAlign=bottom;startArrow=oval;endArrow=block;startSize=8;edgeStyle=elbowEdgeStyle;elbow=vertical;curved=0;rounded=0;entryX=-0.26;entryY=0.004;entryDx=0;entryDy=0;entryPerimeter=0;" edge="1" parent="U5JM5fZHrac_0It8cKO1-1">
          <mxGeometry relative="1" as="geometry">
            <mxPoint x="-18" y="70" as="sourcePoint" />
            <mxPoint x="44.39999999999998" y="71.39999999999998" as="targetPoint" />
          </mxGeometry>
        </mxCell>
        <mxCell id="U5JM5fZHrac_0It8cKO1-4" value="GetUserByIdQueryHandler" style="shape=umlLifeline;perimeter=lifelinePerimeter;whiteSpace=wrap;html=1;container=0;dropTarget=0;collapsible=0;recursiveResize=0;outlineConnect=0;portConstraint=eastwest;newEdgeStyle={&quot;edgeStyle&quot;:&quot;elbowEdgeStyle&quot;,&quot;elbow&quot;:&quot;vertical&quot;,&quot;curved&quot;:0,&quot;rounded&quot;:0};" vertex="1" parent="1">
          <mxGeometry x="220" y="40" width="160" height="430" as="geometry" />
        </mxCell>
        <mxCell id="U5JM5fZHrac_0It8cKO1-5" value="" style="html=1;points=[];perimeter=orthogonalPerimeter;outlineConnect=0;targetShapes=umlLifeline;portConstraint=eastwest;newEdgeStyle={&quot;edgeStyle&quot;:&quot;elbowEdgeStyle&quot;,&quot;elbow&quot;:&quot;vertical&quot;,&quot;curved&quot;:0,&quot;rounded&quot;:0};" vertex="1" parent="U5JM5fZHrac_0It8cKO1-4">
          <mxGeometry x="75" y="80" width="10" height="290" as="geometry" />
        </mxCell>
        <mxCell id="U5JM5fZHrac_0It8cKO1-6" value="new GetUserByIdQuery()" style="html=1;verticalAlign=bottom;endArrow=block;edgeStyle=elbowEdgeStyle;elbow=vertical;curved=0;rounded=0;" edge="1" parent="1" source="U5JM5fZHrac_0It8cKO1-23" target="U5JM5fZHrac_0It8cKO1-5">
          <mxGeometry relative="1" as="geometry">
            <mxPoint x="95" y="130" as="sourcePoint" />
            <Array as="points">
              <mxPoint x="180" y="130" />
            </Array>
            <mxPoint x="290" y="130" as="targetPoint" />
          </mxGeometry>
        </mxCell>
        <mxCell id="U5JM5fZHrac_0It8cKO1-8" value="FindEntityRecordById" style="shape=umlLifeline;perimeter=lifelinePerimeter;whiteSpace=wrap;html=1;container=0;dropTarget=0;collapsible=0;recursiveResize=0;outlineConnect=0;portConstraint=eastwest;newEdgeStyle={&quot;edgeStyle&quot;:&quot;elbowEdgeStyle&quot;,&quot;elbow&quot;:&quot;vertical&quot;,&quot;curved&quot;:0,&quot;rounded&quot;:0};" vertex="1" parent="1">
          <mxGeometry x="400" y="40" width="121" height="180" as="geometry" />
        </mxCell>
        <mxCell id="U5JM5fZHrac_0It8cKO1-9" value="" style="html=1;points=[];perimeter=orthogonalPerimeter;outlineConnect=0;targetShapes=umlLifeline;portConstraint=eastwest;newEdgeStyle={&quot;edgeStyle&quot;:&quot;elbowEdgeStyle&quot;,&quot;elbow&quot;:&quot;vertical&quot;,&quot;curved&quot;:0,&quot;rounded&quot;:0};" vertex="1" parent="U5JM5fZHrac_0It8cKO1-8">
          <mxGeometry x="56" y="100" width="10" height="70" as="geometry" />
        </mxCell>
        <mxCell id="U5JM5fZHrac_0It8cKO1-23" value="" style="rounded=0;whiteSpace=wrap;html=1;" vertex="1" parent="1">
          <mxGeometry x="85" y="110" width="10" height="350" as="geometry" />
        </mxCell>
        <mxCell id="U5JM5fZHrac_0It8cKO1-13" value="Result&amp;lt;User?&amp;gt;" style="text;html=1;strokeColor=none;fillColor=none;align=center;verticalAlign=middle;whiteSpace=wrap;rounded=0;" vertex="1" parent="1">
          <mxGeometry x="342.5" y="174" width="85" height="30" as="geometry" />
        </mxCell>
        <mxCell id="U5JM5fZHrac_0It8cKO1-19" value="Find()" style="text;html=1;align=center;verticalAlign=middle;resizable=0;points=[];autosize=1;strokeColor=none;fillColor=none;" vertex="1" parent="1">
          <mxGeometry x="360" y="129" width="50" height="30" as="geometry" />
        </mxCell>
        <mxCell id="U5JM5fZHrac_0It8cKO1-10" value="" style="endArrow=classic;html=1;rounded=0;" edge="1" parent="1">
          <mxGeometry width="50" height="50" relative="1" as="geometry">
            <mxPoint x="304.4999999999999" y="150" as="sourcePoint" />
            <mxPoint x="455.5" y="150" as="targetPoint" />
          </mxGeometry>
        </mxCell>
        <mxCell id="U5JM5fZHrac_0It8cKO1-17" value="" style="html=1;verticalAlign=bottom;endArrow=open;dashed=1;endSize=8;edgeStyle=elbowEdgeStyle;elbow=vertical;curved=0;rounded=0;" edge="1" parent="1">
          <mxGeometry x="0.0051" relative="1" as="geometry">
            <mxPoint x="304.4999999999999" y="197.00310344827588" as="targetPoint" />
            <Array as="points" />
            <mxPoint x="455.5" y="197.00310344827588" as="sourcePoint" />
            <mxPoint as="offset" />
          </mxGeometry>
        </mxCell>
        <mxCell id="U5JM5fZHrac_0It8cKO1-24" value="" style="html=1;verticalAlign=bottom;endArrow=block;edgeStyle=elbowEdgeStyle;elbow=vertical;curved=0;rounded=0;" edge="1" parent="1" target="U5JM5fZHrac_0It8cKO1-23">
          <mxGeometry relative="1" as="geometry">
            <mxPoint x="95" y="130" as="sourcePoint" />
            <Array as="points" />
            <mxPoint x="295" y="130" as="targetPoint" />
          </mxGeometry>
        </mxCell>
        <mxCell id="U5JM5fZHrac_0It8cKO1-22" value="&lt;font style=&quot;font-size: 11px;&quot;&gt;condition&lt;/font&gt;" style="shape=umlFrame;whiteSpace=wrap;html=1;pointerEvents=0;direction=east;" vertex="1" parent="1">
          <mxGeometry x="60" y="220" width="340" height="210" as="geometry" />
        </mxCell>
        <mxCell id="U5JM5fZHrac_0It8cKO1-25" value="[ Result.IsFailed ]" style="text;html=1;align=center;verticalAlign=middle;resizable=0;points=[];autosize=1;strokeColor=none;fillColor=default;fontSize=10;" vertex="1" parent="1">
          <mxGeometry x="250" y="250" width="100" height="30" as="geometry" />
        </mxCell>
        <mxCell id="U5JM5fZHrac_0It8cKO1-26" value="" style="html=1;verticalAlign=bottom;endArrow=open;dashed=1;endSize=8;edgeStyle=elbowEdgeStyle;elbow=vertical;curved=0;rounded=0;entryX=1.143;entryY=0.533;entryDx=0;entryDy=0;entryPerimeter=0;" edge="1" parent="1">
          <mxGeometry x="0.0051" relative="1" as="geometry">
            <mxPoint x="96" y="307" as="targetPoint" />
            <Array as="points" />
            <mxPoint x="294" y="308.0031034482759" as="sourcePoint" />
            <mxPoint as="offset" />
          </mxGeometry>
        </mxCell>
        <mxCell id="U5JM5fZHrac_0It8cKO1-27" value="&lt;font style=&quot;font-size: 9px;&quot;&gt;CustomGenericResult(&lt;br style=&quot;font-size: 9px;&quot;&gt;data: null,&lt;br style=&quot;font-size: 9px;&quot;&gt;&amp;nbsp;statusCode: NotFound)&lt;/font&gt;" style="text;html=1;align=center;verticalAlign=middle;resizable=0;points=[];autosize=1;strokeColor=none;fillColor=default;fontSize=9;" vertex="1" parent="1">
          <mxGeometry x="140" y="280" width="120" height="50" as="geometry" />
        </mxCell>
        <mxCell id="U5JM5fZHrac_0It8cKO1-28" value="" style="endArrow=none;dashed=1;html=1;rounded=0;" edge="1" parent="1">
          <mxGeometry width="50" height="50" relative="1" as="geometry">
            <mxPoint x="30" y="330" as="sourcePoint" />
            <mxPoint x="333" y="330" as="targetPoint" />
          </mxGeometry>
        </mxCell>
        <mxCell id="U5JM5fZHrac_0It8cKO1-29" value="[else]" style="text;html=1;align=center;verticalAlign=middle;resizable=0;points=[];autosize=1;strokeColor=none;fillColor=default;fontSize=10;imageWidth=24;arcSize=12;strokeOpacity=100;resizeHeight=0;" vertex="1" parent="1">
          <mxGeometry x="275" y="340" width="50" height="30" as="geometry" />
        </mxCell>
        <mxCell id="U5JM5fZHrac_0It8cKO1-30" value="" style="html=1;verticalAlign=bottom;endArrow=open;dashed=1;endSize=8;edgeStyle=elbowEdgeStyle;elbow=vertical;curved=0;rounded=0;entryX=1.143;entryY=0.533;entryDx=0;entryDy=0;entryPerimeter=0;" edge="1" parent="1">
          <mxGeometry x="0.0051" relative="1" as="geometry">
            <mxPoint x="95" y="397" as="targetPoint" />
            <Array as="points" />
            <mxPoint x="293" y="398.0031034482759" as="sourcePoint" />
            <mxPoint as="offset" />
          </mxGeometry>
        </mxCell>
        <mxCell id="U5JM5fZHrac_0It8cKO1-31" value="&lt;font style=&quot;font-size: 9px;&quot;&gt;CustomGenericResult(&lt;br style=&quot;font-size: 9px;&quot;&gt;data: user,&lt;br style=&quot;font-size: 9px;&quot;&gt;&amp;nbsp;statusCode: Ok)&lt;/font&gt;" style="text;html=1;align=center;verticalAlign=middle;resizable=0;points=[];autosize=1;strokeColor=none;fillColor=default;fontSize=9;" vertex="1" parent="1">
          <mxGeometry x="144" y="370" width="110" height="50" as="geometry" />
        </mxCell>
      </root>
    </mxGraphModel>
  </diagram>
</mxfile>
